<?xml version="1.0" standalone="no"?>
<!DOCTYPE svg PUBLIC "-//W3C//DTD SVG 20010904//EN"
 "http://www.w3.org/TR/2001/REC-SVG-20010904/DTD/svg10.dtd">
<svg version="1.0" xmlns="http://www.w3.org/2000/svg"
 width="4800.000000pt" height="3200.000000pt" viewBox="0 0 4800.000000 3200.000000"
 preserveAspectRatio="xMidYMid meet">

<g transform="translate(0.000000,3200.000000) scale(0.100000,-0.100000)"
fill="#000000" stroke="none">
<path d="M24088 27623 c7 -3 16 -2 19 1 4 3 -2 6 -13 5 -11 0 -14 -3 -6 -6z"/>
<path d="M26656 27055 c17 -7 44 -16 60 -20 25 -4 24 -3 -6 8 -19 8 -46 17
-60 20 -19 5 -17 3 6 -8z"/>
<path d="M28751 25595 c0 -5 13 -28 29 -49 17 -22 30 -33 30 -25 -1 16 -59 90
-59 74z"/>
<path d="M28850 25462 c0 -16 51 -94 58 -87 3 2 -9 26 -27 52 -17 26 -31 42
-31 35z"/>
<path d="M23350 21900 c-1390 -70 -2442 -271 -3110 -592 -365 -177 -629 -472
-780 -873 -50 -134 -93 -307 -121 -492 -33 -217 -30 -663 7 -903 5 -31 4 -33
-9 -17 -13 15 -37 17 -229 17 l-215 0 -66 30 c-158 72 -392 107 -585 89 -188
-17 -360 -74 -537 -177 -101 -59 -257 -211 -309 -301 -120 -207 -135 -464 -45
-738 11 -35 26 -63 32 -63 13 0 1639 549 1646 556 2 2 -6 59 -17 127 -12 68
-22 129 -22 135 0 9 54 12 208 12 l208 0 38 -132 c101 -358 214 -546 374 -625
54 -26 64 -28 187 -28 176 1 260 27 720 223 614 261 887 354 1319 451 1015
228 2469 252 3593 61 567 -97 911 -205 1659 -523 301 -128 411 -169 529 -198
99 -23 232 -25 305 -3 115 34 212 131 288 287 51 103 129 322 153 430 l14 57
212 0 c158 0 213 -3 213 -12 0 -6 -10 -67 -22 -135 -11 -68 -19 -125 -17 -127
7 -7 1634 -556 1646 -556 13 0 52 114 74 215 21 96 16 305 -9 398 -37 137 -93
229 -207 342 -185 185 -435 298 -717 324 -193 18 -427 -17 -585 -89 l-66 -30
-216 0 -216 0 -18 -27 -18 -28 5 25 c3 14 13 100 22 190 21 215 14 585 -15
770 -87 555 -316 961 -686 1217 -155 108 -482 249 -798 344 -605 182 -1316
291 -2337 360 -200 13 -1265 20 -1480 9z m2275 -2920 c3 -6 -1 -7 -9 -4 -18 7
-21 14 -7 14 6 0 13 -4 16 -10z"/>
<path d="M19488 16605 c-56 -18 -134 -99 -143 -148 -3 -18 -4 -762 -3 -1654
l3 -1621 25 -27 c14 -15 43 -37 65 -48 38 -21 54 -22 379 -25 376 -3 415 2
474 59 34 34 47 81 87 324 93 573 99 1169 14 1642 -87 488 -269 982 -484 1313
-67 104 -106 142 -175 173 -59 26 -178 32 -242 12z"/>
<path d="M28405 16606 c-48 -15 -112 -54 -142 -87 -60 -67 -209 -335 -288
-519 -111 -258 -212 -600 -265 -900 -94 -536 -73 -1242 56 -1854 18 -86 52
-126 126 -150 42 -13 102 -16 373 -16 363 0 397 5 457 67 l33 34 3 1636 c2
1634 2 1636 -18 1679 -50 101 -203 152 -335 110z"/>
<path d="M19476 12715 c-59 -21 -88 -46 -113 -95 l-23 -44 0 -1993 c0 -1846 1
-1996 17 -2035 48 -121 155 -182 280 -159 126 24 184 76 271 249 228 447 392
994 482 1616 84 576 78 1302 -16 2006 -49 370 -57 394 -148 443 -40 21 -52 22
-376 24 -270 2 -343 0 -374 -12z"/>
<path d="M27906 12715 c-94 -34 -120 -74 -146 -227 -110 -645 -140 -1479 -74
-2043 80 -688 256 -1318 502 -1799 92 -180 149 -233 275 -257 126 -23 235 39
281 161 15 42 16 187 14 2051 l-3 2006 -28 36 c-16 21 -47 47 -70 60 -41 21
-51 22 -377 24 -270 2 -343 0 -374 -12z"/>
<path d="M20780 9297 c-100 -28 -181 -105 -249 -237 -113 -217 -172 -484 -173
-780 -2 -505 206 -871 607 -1074 109 -54 368 -141 565 -189 1187 -289 3179
-329 4582 -92 413 70 781 172 993 275 410 198 625 571 625 1083 0 270 -59 542
-165 759 -114 232 -254 301 -516 252 -46 -8 -244 -69 -439 -134 -552 -185
-792 -248 -1160 -304 -437 -66 -712 -87 -1266 -93 -597 -7 -943 11 -1409 73
-439 58 -740 133 -1280 319 -338 116 -447 145 -570 150 -65 3 -116 1 -145 -8z"/>
<path d="M28540 5974 c-69 -91 -226 -245 -325 -318 -124 -93 -307 -184 -465
-231 -30 -9 -98 -19 -151 -22 -82 -5 -105 -3 -161 16 -37 12 -78 34 -94 50
l-29 29 -22 -37 c-12 -20 -37 -72 -54 -116 -28 -68 -32 -93 -33 -170 0 -75 3
-97 22 -132 83 -157 357 -162 667 -13 425 204 780 638 748 914 -5 43 -28 117
-36 115 -1 0 -31 -38 -67 -85z"/>
<path d="M19501 6023 c-7 -16 -15 -51 -18 -80 -29 -274 312 -696 732 -907 253
-127 487 -150 621 -63 73 48 103 157 77 282 -14 69 -86 235 -102 235 -4 0 -16
-9 -25 -19 -10 -11 -41 -30 -69 -43 -45 -20 -67 -23 -167 -23 -101 1 -128 5
-215 33 -269 84 -545 279 -735 517 -39 50 -75 91 -79 93 -4 1 -13 -10 -20 -25z"/>
<path d="M20575 5770 c10 -11 20 -20 23 -20 3 0 -3 9 -13 20 -10 11 -20 20
-23 20 -3 0 3 -9 13 -20z"/>
</g>
</svg>
